<svg t="1730793764690" class="icon" viewBox="0 0 1024 1024" version="1.1" xmlns="http://www.w3.org/2000/svg" p-id="40010" width="16" height="16"><path d="M512 512m-185.54481938-185.54481938a262.4 262.4 0 1 0 371.08963876 371.08963876 262.4 262.4 0 1 0-371.08963876-371.08963876Z" fill="#17A09A" p-id="40011"></path><path d="M172.58874503 471.2706494c-31.6783838-31.6783838-45.254834-63.35676759-40.7293506-95.03515139 13.5764502-40.7293506 81.45870119-63.35676759 181.01933599-63.35676759l9.0509668 9.0509668c0 9.0509668 0 9.0509668-9.0509668 9.0509668-90.50966799 0-149.34095219 13.5764502-158.39191899 49.78031739-9.0509668 27.1529004 18.1019336 72.40773439 81.45870119 117.66256839 63.35676759 45.254834 158.39191899 85.98418459 257.95255378 113.13708499 104.08611819 31.6783838 199.12126958 45.254834 280.57997078 45.254834 72.40773439 0 122.18805179-22.627417 131.23901858-49.7803174 9.0509668-36.2038672-36.2038672-90.50966799-126.71353518-144.81546879-4.5254834-4.5254834-9.0509668-9.0509668-4.5254834-13.57645019s9.0509668-9.0509668 13.5764502-4.5254834c104.08611819 58.83128419 153.86643559 117.66256839 135.76450198 162.91740238-9.0509668 36.2038672-63.35676759 63.35676759-144.81546878 63.3567676-81.45870119 0-185.54481938-13.5764502-285.10545418-40.7293506-104.08611819-31.6783838-199.12126958-72.40773439-262.47803717-117.66256839-22.627417-13.5764502-45.254834-27.1529004-58.8312842-40.7293506z" fill="#FDD000" p-id="40012"></path><path d="M588.93321779 643.23901859m-31.67838379-31.6783838a44.8 44.8 0 1 0 63.35676759 63.3567676 44.8 44.8 0 1 0-63.35676759-63.3567676Z" fill="#FDD000" p-id="40013"></path></svg>